<svg xmlns="http://www.w3.org/2000/svg" xmlns:xlink="http://www.w3.org/1999/xlink" contentStyleType="text/css" data-diagram-type="DESCRIPTION" height="1638.75px" preserveAspectRatio="none" style="width:3730px;height:1638px;background:#FFFFFF;" version="1.1" viewBox="0 0 3730 1638" width="3730px" zoomAndPan="magnify"><defs/><g><!--cluster Docker Host--><g class="cluster" data-entity="Docker Host" data-source-line="19" data-uid="ent0004" id="cluster_Docker Host"><polygon fill="#F3E5F5" points="788.75,181.625,801.25,169.125,2233.75,169.125,2233.75,1605.9375,2221.25,1618.4375,788.75,1618.4375,788.75,181.625" style="stroke:#7B1FA2;stroke-width:1.25;"/><line style="stroke:#7B1FA2;stroke-width:1.25;" x1="2221.25" x2="2233.75" y1="181.625" y2="169.125"/><line style="stroke:#7B1FA2;stroke-width:1.25;" x1="788.75" x2="2221.25" y1="181.625" y2="181.625"/><line style="stroke:#7B1FA2;stroke-width:1.25;" x1="2221.25" x2="2221.25" y1="181.625" y2="1618.4375"/><text fill="#000000" font-family="Verdana" font-size="17.5" font-weight="bold" lengthAdjust="spacing" textLength="120.603" x="1445.9485" y="201.6189">Docker Host</text></g><!--cluster docker compose stack--><g class="cluster" data-entity="docker compose stack" data-source-line="20" data-uid="ent0005" id="cluster_docker compose stack"><rect fill="#F3E5F5" height="1359.3125" rx="3.125" ry="3.125" style="stroke:#7B1FA2;stroke-width:1.25;" width="1385" x="818.75" y="229.125"/><path d="M1050.564,229.125 L1050.564,240.7461 L1038.064,253.2461 L818.75,253.2461" fill="none" style="stroke:#7B1FA2;stroke-width:1.25;"/><text fill="#000000" font-family="Verdana" font-size="17.5" font-weight="bold" lengthAdjust="spacing" textLength="219.314" x="822.5" y="246.6189">docker compose stack</text></g><!--cluster WebContainer--><g class="cluster" data-entity="WebContainer" data-source-line="21" data-uid="ent0006" id="cluster_WebContainer"><polygon fill="#F3E5F5" points="1210,305.375,1222.5,292.875,2163.75,292.875,2163.75,1046.3625,2151.25,1058.8625,1210,1058.8625,1210,305.375" style="stroke:#7B1FA2;stroke-width:1.25;"/><line style="stroke:#7B1FA2;stroke-width:1.25;" x1="2151.25" x2="2163.75" y1="305.375" y2="292.875"/><line style="stroke:#7B1FA2;stroke-width:1.25;" x1="1210" x2="2151.25" y1="305.375" y2="305.375"/><line style="stroke:#7B1FA2;stroke-width:1.25;" x1="2151.25" x2="2151.25" y1="305.375" y2="1058.8625"/><text fill="#000000" font-family="Verdana" font-size="17.5" font-weight="bold" lengthAdjust="spacing" textLength="40.5627" x="1661.5936" y="325.3689">web</text><text fill="#000000" font-family="Verdana" font-size="17.5" font-weight="bold" lengthAdjust="spacing" textLength="183.4253" x="1590.1624" y="345.74">(Gunicorn + Flask)</text></g><!--cluster CP4Services--><g class="cluster" data-entity="CP4Services" data-source-line="28" data-uid="ent0012" id="cluster_CP4Services"><rect fill="#E8F5E9" height="149.1" rx="3.125" ry="3.125" style="stroke:#7B1FA2;stroke-width:1.25;" width="775" x="1328.75" y="859.7625"/><text fill="#000000" font-family="Verdana" font-size="12.5" font-weight="bold" lengthAdjust="spacing" textLength="150.1099" x="1641.1951" y="873.8653">CP4 Feature Services</text></g><!--cluster DbContainer--><g class="cluster" data-entity="DbContainer" data-source-line="36" data-uid="ent0017" id="cluster_DbContainer"><polygon fill="#F3E5F5" points="1660,1152.6125,1672.5,1140.1125,2036.25,1140.1125,2036.25,1535.9375,2023.75,1548.4375,1660,1548.4375,1660,1152.6125" style="stroke:#7B1FA2;stroke-width:1.25;"/><line style="stroke:#7B1FA2;stroke-width:1.25;" x1="2023.75" x2="2036.25" y1="1152.6125" y2="1140.1125"/><line style="stroke:#7B1FA2;stroke-width:1.25;" x1="1660" x2="2023.75" y1="1152.6125" y2="1152.6125"/><line style="stroke:#7B1FA2;stroke-width:1.25;" x1="2023.75" x2="2023.75" y1="1152.6125" y2="1548.4375"/><text fill="#000000" font-family="Verdana" font-size="17.5" font-weight="bold" lengthAdjust="spacing" textLength="25.0537" x="1830.5981" y="1172.6064">db</text><text fill="#000000" font-family="Verdana" font-size="17.5" font-weight="bold" lengthAdjust="spacing" textLength="161.7297" x="1762.2601" y="1192.9775">(PostgreSQL 15)</text></g><!--cluster External Services--><g class="cluster" data-entity="External Services" data-source-line="43" data-uid="ent0020" id="cluster_External Services"><polygon fill="#F3E5F5" points="397.5,630.2,410,617.7,758.75,617.7,758.75,744.75,746.25,757.25,397.5,757.25,397.5,630.2" style="stroke:#7B1FA2;stroke-width:1.25;"/><line style="stroke:#7B1FA2;stroke-width:1.25;" x1="746.25" x2="758.75" y1="630.2" y2="617.7"/><line style="stroke:#7B1FA2;stroke-width:1.25;" x1="397.5" x2="746.25" y1="630.2" y2="630.2"/><line style="stroke:#7B1FA2;stroke-width:1.25;" x1="746.25" x2="746.25" y1="630.2" y2="757.25"/><text fill="#000000" font-family="Verdana" font-size="17.5" font-weight="bold" lengthAdjust="spacing" textLength="171.6333" x="487.3083" y="650.1939">External Services</text></g><!--cluster Monitoring Tooling--><g class="cluster" data-entity="Monitoring Tooling" data-source-line="48" data-uid="ent0023" id="cluster_Monitoring Tooling"><polygon fill="#F3E5F5" points="26.25,622.925,38.75,610.425,367.5,610.425,367.5,752.025,355,764.525,26.25,764.525,26.25,622.925" style="stroke:#7B1FA2;stroke-width:1.25;"/><line style="stroke:#7B1FA2;stroke-width:1.25;" x1="355" x2="367.5" y1="622.925" y2="610.425"/><line style="stroke:#7B1FA2;stroke-width:1.25;" x1="26.25" x2="355" y1="622.925" y2="622.925"/><line style="stroke:#7B1FA2;stroke-width:1.25;" x1="355" x2="355" y1="622.925" y2="764.525"/><text fill="#000000" font-family="Verdana" font-size="17.5" font-weight="bold" lengthAdjust="spacing" textLength="186.9543" x="98.3978" y="642.9189">Monitoring Tooling</text></g><!--entity Flask--><g class="entity" data-entity="Flask" data-source-line="22" data-uid="ent0007" id="entity_Flask"><rect fill="#E3F2FD" height="54.1016" rx="3.125" ry="3.125" style="stroke:#1976D2;stroke-width:1.25;" width="166.6138" x="1382.9375" y="422.875"/><text fill="#000000" font-family="Verdana" font-size="12.5" lengthAdjust="spacing" textLength="105.8899" x="1395.4375" y="446.9778">Flask Application</text><text fill="#000000" font-family="Verdana" font-size="12.5" lengthAdjust="spacing" textLength="141.6138" x="1395.4375" y="461.5286">(main.py + blueprints)</text></g><!--entity ReturnsModule--><g class="entity" data-entity="ReturnsModule" data-source-line="23" data-uid="ent0008" id="entity_ReturnsModule"><rect fill="#E3F2FD" height="54.1016" rx="3.125" ry="3.125" style="stroke:#1976D2;stroke-width:1.25;" width="191.9617" x="1460.275" y="690.425"/><text fill="#000000" font-family="Verdana" font-size="12.5" lengthAdjust="spacing" textLength="166.9617" x="1472.775" y="714.5278">Returns &amp; Refunds Module</text><text fill="#000000" font-family="Verdana" font-size="12.5" lengthAdjust="spacing" textLength="142.4011" x="1472.775" y="729.0786">(services + templates)</text></g><!--entity QTM--><g class="entity" data-entity="QTM" data-source-line="24" data-uid="ent0009" id="entity_QTM"><rect fill="#E3F2FD" height="39.5508" rx="3.125" ry="3.125" style="stroke:#1976D2;stroke-width:1.25;" width="176.3306" x="1240.5875" y="697.7"/><text fill="#000000" font-family="Verdana" font-size="12.5" lengthAdjust="spacing" textLength="151.3306" x="1253.0875" y="721.8028">Quality Tactics Manager</text></g><!--entity Dashboard--><g class="entity" data-entity="Dashboard" data-source-line="25" data-uid="ent0010" id="entity_Dashboard"><rect fill="#E3F2FD" height="54.1016" rx="3.125" ry="3.125" style="stroke:#1976D2;stroke-width:1.25;" width="185.083" x="1938.7125" y="690.425"/><text fill="#000000" font-family="Verdana" font-size="12.5" lengthAdjust="spacing" textLength="160.083" x="1951.2125" y="714.5278">Unified Admin Dashboard</text><text fill="#000000" font-family="Verdana" font-size="12.5" lengthAdjust="spacing" textLength="123.6877" x="1951.2125" y="729.0786">(/admin/dashboard)</text></g><!--entity ManageStore--><g class="entity" data-entity="ManageStore" data-source-line="26" data-uid="ent0011" id="entity_ManageStore"><rect fill="#E3F2FD" height="54.1016" rx="3.125" ry="3.125" style="stroke:#1976D2;stroke-width:1.25;" width="169.7876" x="1940.1" y="422.875"/><text fill="#000000" font-family="Verdana" font-size="12.5" lengthAdjust="spacing" textLength="127.2705" x="1952.6" y="446.9778">Manage Store Portal</text><text fill="#000000" font-family="Verdana" font-size="12.5" lengthAdjust="spacing" textLength="144.7876" x="1952.6" y="461.5286">(/admin/manage-store)</text></g><!--entity HistorySvc--><g class="entity" data-entity="HistorySvc" data-source-line="29" data-uid="ent0013" id="entity_HistorySvc"><rect fill="#E3F2FD" height="54.1016" rx="3.125" ry="3.125" style="stroke:#1976D2;stroke-width:1.25;" width="125.6653" x="1773.4125" y="924.7625"/><text fill="#000000" font-family="Verdana" font-size="12.5" lengthAdjust="spacing" textLength="90.6677" x="1785.9125" y="948.8653">HistoryService</text><text fill="#000000" font-family="Verdana" font-size="12.5" lengthAdjust="spacing" textLength="100.6653" x="1785.9125" y="963.4161">(Order Filtering)</text></g><!--entity LowStockSvc--><g class="entity" data-entity="LowStockSvc" data-source-line="30" data-uid="ent0014" id="entity_LowStockSvc"><rect fill="#E3F2FD" height="54.1016" rx="3.125" ry="3.125" style="stroke:#1976D2;stroke-width:1.25;" width="160.3821" x="1569.8125" y="924.7625"/><text fill="#000000" font-family="Verdana" font-size="12.5" lengthAdjust="spacing" textLength="135.3821" x="1582.3125" y="948.8653">LowStockAlertService</text><text fill="#000000" font-family="Verdana" font-size="12.5" lengthAdjust="spacing" textLength="61.4502" x="1582.3125" y="963.4161">(Pub-Sub)</text></g><!--entity NotificationSvc--><g class="entity" data-entity="NotificationSvc" data-source-line="31" data-uid="ent0015" id="entity_NotificationSvc"><rect fill="#E3F2FD" height="54.1016" rx="3.125" ry="3.125" style="stroke:#1976D2;stroke-width:1.25;" width="142.9199" x="1383.5375" y="924.7625"/><text fill="#000000" font-family="Verdana" font-size="12.5" lengthAdjust="spacing" textLength="117.9199" x="1396.0375" y="948.8653">NotificationService</text><text fill="#000000" font-family="Verdana" font-size="12.5" lengthAdjust="spacing" textLength="93.5303" x="1396.0375" y="963.4161">(RMA Updates)</text></g><!--entity FlashSaleSvc--><g class="entity" data-entity="FlashSaleSvc" data-source-line="32" data-uid="ent0016" id="entity_FlashSaleSvc"><rect fill="#E3F2FD" height="54.1016" rx="3.125" ry="3.125" style="stroke:#1976D2;stroke-width:1.25;" width="130.7129" x="1943.3875" y="924.7625"/><text fill="#000000" font-family="Verdana" font-size="12.5" lengthAdjust="spacing" textLength="105.7129" x="1955.8875" y="948.8653">FlashSaleService</text><text fill="#000000" font-family="Verdana" font-size="12.5" lengthAdjust="spacing" textLength="80.3589" x="1955.8875" y="963.4161">(Promotions)</text></g><!--entity RetailDB--><g class="entity" data-entity="RetailDB" data-source-line="37" data-uid="ent0018" id="entity_RetailDB"><path d="M1690.1375,1282.6125 C1690.1375,1270.1125 1836.2502,1270.1125 1836.2502,1270.1125 C1836.2502,1270.1125 1982.3628,1270.1125 1982.3628,1282.6125 L1982.3628,1334.6047 C1982.3628,1347.1047 1836.2502,1347.1047 1836.2502,1347.1047 C1836.2502,1347.1047 1690.1375,1347.1047 1690.1375,1334.6047 L1690.1375,1282.6125" fill="#E8F5E9" style="stroke:#2E7D32;stroke-width:1.25;"/><path d="M1690.1375,1282.6125 C1690.1375,1295.1125 1836.2502,1295.1125 1836.2502,1295.1125 C1836.2502,1295.1125 1982.3628,1295.1125 1982.3628,1282.6125" fill="none" style="stroke:#2E7D32;stroke-width:1.25;"/><text fill="#000000" font-family="Verdana" font-size="17.5" lengthAdjust="spacing" textLength="81.2793" x="1702.6375" y="1316.3564">Retail DB</text><text fill="#000000" font-family="Verdana" font-size="17.5" lengthAdjust="spacing" textLength="267.2253" x="1702.6375" y="1336.7275">(core tables + RMA + metrics)</text></g><!--entity Volume--><g class="entity" data-entity="Volume" data-source-line="38" data-uid="ent0019" id="entity_Volume"><rect fill="#FFFFFF" height="69.4922" rx="3.125" ry="3.125" style="stroke:#000000;stroke-width:1.25;" width="196.7004" x="1737.9" y="1448.95"/><polygon fill="#FFFFFF" points="1913.3504,1455.2,1913.3504,1472.7,1928.3504,1472.7,1928.3504,1462.7,1920.8504,1455.2,1913.3504,1455.2" style="stroke:#000000;stroke-width:1.25;"/><line style="stroke:#000000;stroke-width:1.25;" x1="1920.8504" x2="1920.8504" y1="1455.2" y2="1462.7"/><line style="stroke:#000000;stroke-width:1.25;" x1="1928.3504" x2="1920.8504" y1="1462.7" y2="1462.7"/><text fill="#000000" font-family="Verdana" font-size="17.5" lengthAdjust="spacing" textLength="159.2004" x="1750.4" y="1481.4439">Persistent Volume</text><text fill="#000000" font-family="Verdana" font-size="17.5" lengthAdjust="spacing" textLength="124.1492" x="1750.4" y="1501.815">postgres_data</text></g><!--entity PaymentGateway--><g class="entity" data-entity="PaymentGateway" data-source-line="44" data-uid="ent0021" id="entity_PaymentGateway"><rect fill="#E3F2FD" height="39.5508" rx="3.125" ry="3.125" style="stroke:#1976D2;stroke-width:1.25;" width="175.9949" x="417" y="697.7"/><text fill="#000000" font-family="Verdana" font-size="12.5" lengthAdjust="spacing" textLength="150.9949" x="429.5" y="721.8028">Mock Payment Gateway</text></g><!--entity PartnerAPIs--><g class="entity" data-entity="PartnerAPIs" data-source-line="45" data-uid="ent0022" id="entity_PartnerAPIs"><rect fill="#E3F2FD" height="39.5508" rx="3.125" ry="3.125" style="stroke:#1976D2;stroke-width:1.25;" width="101.2512" x="636.875" y="697.7"/><text fill="#000000" font-family="Verdana" font-size="12.5" lengthAdjust="spacing" textLength="76.2512" x="649.375" y="721.8028">Partner APIs</text></g><!--entity Logs--><g class="entity" data-entity="Logs" data-source-line="49" data-uid="ent0024" id="entity_Logs"><rect fill="#E3F2FD" height="39.5508" rx="3.125" ry="3.125" style="stroke:#1976D2;stroke-width:1.25;" width="124.3896" x="46.55" y="697.7"/><text fill="#000000" font-family="Verdana" font-size="12.5" lengthAdjust="spacing" textLength="99.3896" x="59.05" y="721.8028">Structured Logs</text></g><!--entity MetricsEndpoint--><g class="entity" data-entity="MetricsEndpoint" data-source-line="50" data-uid="ent0025" id="entity_MetricsEndpoint"><rect fill="#E3F2FD" height="54.1016" rx="3.125" ry="3.125" style="stroke:#1976D2;stroke-width:1.25;" width="132.782" x="214.8625" y="690.425"/><text fill="#000000" font-family="Verdana" font-size="12.5" lengthAdjust="spacing" textLength="107.782" x="227.3625" y="714.5278">Metrics Snapshot</text><text fill="#000000" font-family="Verdana" font-size="12.5" lengthAdjust="spacing" textLength="104.1077" x="227.3625" y="729.0786">(/admin/metrics)</text></g><!--entity CustomerBrowser--><g class="entity" data-entity="CustomerBrowser" data-source-line="16" data-uid="ent0002" id="entity_CustomerBrowser"><polygon fill="#FFFFFF" points="2747.8125,26.25,2760.3125,13.75,2959.679,13.75,2959.679,59.1211,2947.179,71.6211,2747.8125,71.6211,2747.8125,26.25" style="stroke:#000000;stroke-width:1.25;"/><line style="stroke:#000000;stroke-width:1.25;" x1="2947.179" x2="2959.679" y1="26.25" y2="13.75"/><line style="stroke:#000000;stroke-width:1.25;" x1="2747.8125" x2="2947.179" y1="26.25" y2="26.25"/><line style="stroke:#000000;stroke-width:1.25;" x1="2947.179" x2="2947.179" y1="26.25" y2="71.6211"/><text fill="#000000" font-family="Verdana" font-size="17.5" lengthAdjust="spacing" textLength="85.0049" x="2766.5625" y="54.9939">Customer</text><text fill="#000000" font-family="Verdana" font-size="17.5" lengthAdjust="spacing" textLength="5.5627" x="2851.5674" y="54.9939">&#160;</text><text fill="#000000" font-family="Verdana" font-size="17.5" lengthAdjust="spacing" textLength="71.2988" x="2857.1301" y="54.9939">Browser</text></g><!--entity AdminBrowser--><g class="entity" data-entity="AdminBrowser" data-source-line="17" data-uid="ent0003" id="entity_AdminBrowser"><polygon fill="#FFFFFF" points="2466.025,433.4875,2478.525,420.9875,2648.9669,420.9875,2648.9669,466.3586,2636.4669,478.8586,2466.025,478.8586,2466.025,433.4875" style="stroke:#000000;stroke-width:1.25;"/><line style="stroke:#000000;stroke-width:1.25;" x1="2636.4669" x2="2648.9669" y1="433.4875" y2="420.9875"/><line style="stroke:#000000;stroke-width:1.25;" x1="2466.025" x2="2636.4669" y1="433.4875" y2="433.4875"/><line style="stroke:#000000;stroke-width:1.25;" x1="2636.4669" x2="2636.4669" y1="433.4875" y2="478.8586"/><text fill="#000000" font-family="Verdana" font-size="17.5" lengthAdjust="spacing" textLength="56.0803" x="2484.775" y="462.2314">Admin</text><text fill="#000000" font-family="Verdana" font-size="17.5" lengthAdjust="spacing" textLength="5.5627" x="2540.8553" y="462.2314">&#160;</text><text fill="#000000" font-family="Verdana" font-size="17.5" lengthAdjust="spacing" textLength="71.2988" x="2546.4181" y="462.2314">Browser</text></g><g class="entity" data-entity="GMN46" data-source-line="76" data-uid="ent0047" id="entity_GMN46"><path d="M3107.9125,386.925 L3107.9125,512.9211 L3424.5995,512.9211 L3424.5995,399.425 L3412.0995,386.925 L3107.9125,386.925" fill="#FFF3CD" style="stroke:#856404;stroke-width:1.25;"/><path d="M3412.0995,386.925 L3412.0995,399.425 L3424.5995,399.425 L3412.0995,386.925" fill="#FFF3CD" style="stroke:#856404;stroke-width:1.25;"/><text fill="#000000" font-family="Verdana" font-size="16.25" lengthAdjust="spacing" textLength="198.7054" x="3115.4125" y="408.2586">Flask container bundles:</text><text fill="#000000" font-family="Verdana" font-size="16.25" lengthAdjust="spacing" textLength="154.2242" x="3115.4125" y="427.1746">- Gunicorn workers</text><text fill="#000000" font-family="Verdana" font-size="16.25" lengthAdjust="spacing" textLength="243.5278" x="3115.4125" y="446.0906">- Returns blueprint + services</text><text fill="#000000" font-family="Verdana" font-size="16.25" lengthAdjust="spacing" textLength="219.2798" x="3115.4125" y="465.0067">- Observability middleware</text><text fill="#000000" font-family="Verdana" font-size="16.25" lengthAdjust="spacing" textLength="206.0132" x="3115.4125" y="483.9227">- Quality tactics manager</text><text fill="#000000" font-family="Verdana" font-size="16.25" lengthAdjust="spacing" textLength="290.437" x="3115.4125" y="502.8387">- CP4 Feature Services (in-memory)</text></g><g class="entity" data-entity="GMN49" data-source-line="85" data-uid="ent0050" id="entity_GMN49"><path d="M2253.9,1264.5375 L2253.9,1352.7016 L2553.5991,1352.7016 L2553.5991,1277.0375 L2541.0991,1264.5375 L2253.9,1264.5375" fill="#FFF3CD" style="stroke:#856404;stroke-width:1.25;"/><path d="M2541.0991,1264.5375 L2541.0991,1277.0375 L2553.5991,1277.0375 L2541.0991,1264.5375" fill="#FFF3CD" style="stroke:#856404;stroke-width:1.25;"/><text fill="#000000" font-family="Verdana" font-size="16.25" lengthAdjust="spacing" textLength="273.4491" x="2261.4" y="1285.8711">Postgres container bootstraps via</text><text fill="#000000" font-family="Verdana" font-size="16.25" lengthAdjust="spacing" textLength="234.6411" x="2261.4" y="1304.7871">`db/init.sql`, migrations, and</text><text fill="#000000" font-family="Verdana" font-size="16.25" lengthAdjust="spacing" textLength="270.2039" x="2261.4" y="1323.7031">demo seeds. Volumes keep state</text><text fill="#000000" font-family="Verdana" font-size="16.25" lengthAdjust="spacing" textLength="222.1838" x="2261.4" y="1342.6192">between compose restarts.</text></g><g class="entity" data-entity="GMN52" data-source-line="92" data-uid="ent0053" id="entity_GMN52"><path d="M2254.0375,898.275 L2254.0375,1005.3551 L2560.965,1005.3551 L2560.965,910.775 L2548.465,898.275 L2254.0375,898.275" fill="#FFF3CD" style="stroke:#856404;stroke-width:1.25;"/><path d="M2548.465,898.275 L2548.465,910.775 L2560.965,910.775 L2548.465,898.275" fill="#FFF3CD" style="stroke:#856404;stroke-width:1.25;"/><text fill="#000000" font-family="Verdana" font-size="16.25" lengthAdjust="spacing" textLength="188.692" x="2261.5375" y="919.6086">Checkpoint 4 Features:</text><text fill="#000000" font-family="Verdana" font-size="16.25" lengthAdjust="spacing" textLength="255.2313" x="2261.5375" y="938.5246">- Order History with filters (2.1)</text><text fill="#000000" font-family="Verdana" font-size="16.25" lengthAdjust="spacing" textLength="189.4537" x="2261.5375" y="957.4406">- Low Stock Alerts (2.2)</text><text fill="#000000" font-family="Verdana" font-size="16.25" lengthAdjust="spacing" textLength="198.0151" x="2261.5375" y="976.3567">- RMA Notifications (2.3)</text><text fill="#000000" font-family="Verdana" font-size="16.25" lengthAdjust="spacing" textLength="280.6775" x="2261.5375" y="995.2727">- All use Pub-Sub / Layers patterns</text></g><g class="entity" data-entity="GMN55" data-source-line="100" data-uid="ent0056" id="entity_GMN55"><path d="M2253.85,663.9375 L2253.85,712.475 L2124.1125,717.475 L2253.85,722.475 L2253.85,771.0176 A0,0 0 0 0 2253.85,771.0176 L2578.6382,771.0176 A0,0 0 0 0 2578.6382,771.0176 L2578.6382,676.4375 L2566.1382,663.9375 L2253.85,663.9375 A0,0 0 0 0 2253.85,663.9375" fill="#FFF3CD" style="stroke:#856404;stroke-width:1.25;"/><path d="M2566.1382,663.9375 L2566.1382,676.4375 L2578.6382,676.4375 L2566.1382,663.9375" fill="#FFF3CD" style="stroke:#856404;stroke-width:1.25;"/><text fill="#000000" font-family="Verdana" font-size="16.25" lengthAdjust="spacing" textLength="213.5828" x="2261.35" y="685.2711">Unified Admin Dashboard:</text><text fill="#000000" font-family="Verdana" font-size="16.25" lengthAdjust="spacing" textLength="298.5382" x="2261.35" y="704.1871">- Portal cards (Users, Store, Returns)</text><text fill="#000000" font-family="Verdana" font-size="16.25" lengthAdjust="spacing" textLength="205.3625" x="2261.35" y="723.1031">- Business metrics &amp; KPIs</text><text fill="#000000" font-family="Verdana" font-size="16.25" lengthAdjust="spacing" textLength="273.5364" x="2261.35" y="742.0192">- Scenario A.1 and P.1 monitoring</text><text fill="#000000" font-family="Verdana" font-size="16.25" lengthAdjust="spacing" textLength="195.5078" x="2261.35" y="760.9352">- HTTP latency &amp; events</text></g><g class="entity" data-entity="GMN58" data-source-line="108" data-uid="ent0059" id="entity_GMN58"><path d="M3467.975,396.3875 L3467.975,503.4676 L3722.0344,503.4676 L3722.0344,408.8875 L3709.5344,396.3875 L3467.975,396.3875" fill="#FFF3CD" style="stroke:#856404;stroke-width:1.25;"/><path d="M3709.5344,396.3875 L3709.5344,408.8875 L3722.0344,408.8875 L3709.5344,396.3875" fill="#FFF3CD" style="stroke:#856404;stroke-width:1.25;"/><text fill="#000000" font-family="Verdana" font-size="16.25" lengthAdjust="spacing" textLength="170.9265" x="3475.475" y="417.7211">Manage Store Portal:</text><text fill="#000000" font-family="Verdana" font-size="16.25" lengthAdjust="spacing" textLength="217.2327" x="3475.475" y="436.6371">- Product CRUD operations</text><text fill="#000000" font-family="Verdana" font-size="16.25" lengthAdjust="spacing" textLength="227.8094" x="3475.475" y="455.5531">- Low stock alerts (Pub-Sub)</text><text fill="#000000" font-family="Verdana" font-size="16.25" lengthAdjust="spacing" textLength="205.7355" x="3475.475" y="474.4692">- Flash sale management</text><text fill="#000000" font-family="Verdana" font-size="16.25" lengthAdjust="spacing" textLength="149.4952" x="3475.475" y="493.3852">- Tabbed interface</text></g><!--link CustomerBrowser to Flask--><g class="link" data-entity-1="CustomerBrowser" data-entity-2="Flask" data-source-line="53" data-uid="lnk26" id="link_CustomerBrowser_Flask"><path d="M2747.375,51.0875 C2535.725,66.275 2069.25,104.8875 1918.75,159.125 C1743.2625,222.375 1571.5072,358.6737 1502.2697,417.3987" fill="none" id="CustomerBrowser-to-Flask" style="stroke:#1F2933;stroke-width:1.25;"/><polygon fill="#1F2933" points="1496.55,422.25,1508.3638,418.7862,1501.3164,418.2073,1501.8954,411.1599,1496.55,422.25" style="stroke:#1F2933;stroke-width:1.25;"/><text fill="#000000" font-family="Verdana" font-size="16.25" lengthAdjust="spacing" textLength="52.1857" x="2222.7386" y="125.4586">HTTPS</text><text fill="#000000" font-family="Verdana" font-size="16.25" lengthAdjust="spacing" textLength="177.663" x="2160" y="144.3746">storefront &amp; checkout</text></g><!--link CustomerBrowser to HistorySvc--><g class="link" data-entity-1="CustomerBrowser" data-entity-2="HistorySvc" data-source-line="54" data-uid="lnk27" id="link_CustomerBrowser_HistorySvc"><path d="M2870.6375,71.9125 C2935.45,183.075 3154.0375,596.25 2936.25,774.525 C2838.85,854.2625 2498.15,822.225 2372.5,829.7625 C2347.475,831.2625 1943.6125,828.425 1921.25,839.7625 C1886,857.6375 1864.5466,890.9693 1851.1591,917.6943" fill="none" id="CustomerBrowser-to-HistorySvc" style="stroke:#1F2933;stroke-width:1.25;"/><polygon fill="#1F2933" points="1847.8,924.4,1857.3091,916.5809,1850.5993,918.8119,1848.3682,912.102,1847.8,924.4" style="stroke:#1F2933;stroke-width:1.25;"/><text fill="#000000" font-family="Verdana" font-size="16.25" lengthAdjust="spacing" textLength="110.8459" x="3031.25" y="576.1336">/order-history</text></g><!--link CustomerBrowser to NotificationSvc--><g class="link" data-entity-1="CustomerBrowser" data-entity-2="NotificationSvc" data-source-line="55" data-uid="lnk28" id="link_CustomerBrowser_NotificationSvc"><path d="M2856.825,72.1 C2869.4625,193.6 2912.2125,671.5375 2815,774.525 C2795.9125,794.75 2345.25,828.05 2317.5,829.7625 C2296.15,831.0875 1566.8125,830.575 1547.5,839.7625 C1510.6125,857.3125 1486.8684,890.8959 1471.8184,917.7334" fill="none" id="CustomerBrowser-to-NotificationSvc" style="stroke:#1F2933;stroke-width:1.25;"/><polygon fill="#1F2933" points="1468.15,924.275,1478.0137,916.9082,1471.207,918.8237,1469.2916,912.017,1468.15,924.275" style="stroke:#1F2933;stroke-width:1.25;"/><text fill="#000000" font-family="Verdana" font-size="16.25" lengthAdjust="spacing" textLength="135.5859" x="2873.75" y="576.1336">/api/notifications</text></g><!--link AdminBrowser to Dashboard--><g class="link" data-entity-1="AdminBrowser" data-entity-2="Dashboard" data-source-line="56" data-uid="lnk29" id="link_AdminBrowser_Dashboard"><path d="M2491.2875,479.45 C2425.0125,508.25 2320.5125,555.0125 2232.5,600.425 C2176.8,629.1625 2120.9381,661.8444 2080.6131,686.1194" fill="none" id="AdminBrowser-to-Dashboard" style="stroke:#1F2933;stroke-width:1.25;"/><polygon fill="#1F2933" points="2074.1875,689.9875,2086.4046,688.4691,2079.5421,686.7641,2081.2471,679.9017,2074.1875,689.9875" style="stroke:#1F2933;stroke-width:1.25;"/><text fill="#000000" font-family="Verdana" font-size="16.25" lengthAdjust="spacing" textLength="52.1857" x="2362.9959" y="566.7586">HTTPS</text><text fill="#000000" font-family="Verdana" font-size="16.25" lengthAdjust="spacing" textLength="118.1775" x="2330" y="585.6746">admin console</text></g><!--link AdminBrowser to LowStockSvc--><g class="link" data-entity-1="AdminBrowser" data-entity-2="LowStockSvc" data-source-line="57" data-uid="lnk30" id="link_AdminBrowser_LowStockSvc"><path d="M2573.75,479.125 C2607.2625,540.8375 2674.9125,689.9875 2600,774.525 C2532.2625,850.9625 2245.6125,822.325 2143.75,829.7625 C2122,831.35 1771.1,830.7125 1751.25,839.7625 C1712.6,857.3875 1686.1495,891.1587 1669.0995,917.9712" fill="none" id="AdminBrowser-to-LowStockSvc" style="stroke:#1F2933;stroke-width:1.25;"/><polygon fill="#1F2933" points="1665.075,924.3,1675.3309,917.4898,1668.4287,919.026,1666.8925,912.1238,1665.075,924.3" style="stroke:#1F2933;stroke-width:1.25;"/><text fill="#000000" font-family="Verdana" font-size="16.25" lengthAdjust="spacing" textLength="168.8635" x="2635" y="723.1836">/api/admin/low-stock</text></g><!--link Flask to ReturnsModule--><g class="link" data-entity-1="Flask" data-entity-2="ReturnsModule" data-source-line="58" data-uid="lnk31" id="link_Flask_ReturnsModule"><path d="M1475.2125,477.5625 C1492.4625,528.3625 1527.6884,632.1233 1544.9134,682.8483" fill="none" id="Flask-to-ReturnsModule" style="stroke:#1F2933;stroke-width:1.25;"/><polygon fill="#1F2933" points="1547.325,689.95,1548.4421,677.6897,1545.3154,684.0319,1538.9732,680.9051,1547.325,689.95" style="stroke:#1F2933;stroke-width:1.25;"/><text fill="#000000" font-family="Verdana" font-size="16.25" lengthAdjust="spacing" textLength="173.3307" x="1512.5" y="576.1336">invoke RMA workflow</text></g><!--link Flask to QTM--><g class="link" data-entity-1="Flask" data-entity-2="QTM" data-source-line="59" data-uid="lnk32" id="link_Flask_QTM"><path d="M1440.2625,477.4625 C1422.675,496.425 1400.0125,523.3625 1385,550.425 C1357.425,600.125 1341.8123,658.3798 1334.4873,690.1048" fill="none" id="Flask-to-QTM" style="stroke:#1F2933;stroke-width:1.25;"/><polygon fill="#1F2933" points="1332.8,697.4125,1340.2028,687.5757,1334.2061,691.3227,1330.4591,685.326,1332.8,697.4125" style="stroke:#1F2933;stroke-width:1.25;"/><text fill="#000000" font-family="Verdana" font-size="16.25" lengthAdjust="spacing" textLength="103.4351" x="1386.25" y="576.1336">apply tactics</text></g><!--link Flask to CP4Services--><g class="link" data-entity-1="Flask" data-entity-2="CP4Services" data-source-line="60" data-uid="lnk33" id="link_Flask_CP4Services"><path d="M1549.6375,463.7125 C1601.3375,476.275 1663.875,501.1875 1696.25,550.425 C1729.4125,600.8625 1795.375,641.9875 1673.75,774.525 C1626.15,826.4 1413.8875,790.35 1363.75,839.7625 C1359.3266,844.1234 1355.6133,849.0889 1352.5023,854.444 C1351.7246,855.7828 1350.9845,857.1459 1350.2804,858.5301 C1350.1044,858.8761 1353.2423,852.4942 1353.0707,852.8428" fill="none" id="Flask-to-CP4Services" style="stroke:#1F2933;stroke-width:1.25;"/><polygon fill="#1F2933" points="1349.759,859.572,1359.2127,851.686,1352.5188,853.9643,1350.2404,847.2704,1349.759,859.572" style="stroke:#1F2933;stroke-width:1.25;"/><text fill="#000000" font-family="Verdana" font-size="16.25" lengthAdjust="spacing" textLength="152.5977" x="1745" y="723.1836">CP4 feature routes</text></g><!--link QTM to RetailDB--><g class="link" data-entity-1="QTM" data-entity-2="RetailDB" data-source-line="61" data-uid="lnk34" id="link_QTM_RetailDB"><path d="M1240.2875,733.4625 C1135.775,752.8875 971.4375,790.4375 935,839.7625 C871.85,925.2375 869.7375,995 935,1078.8625 C1026.9375,1197.025 1451.4041,1263.0262 1682.3166,1290.9012" fill="none" id="QTM-to-RetailDB" style="stroke:#1F2933;stroke-width:1.25;"/><polygon fill="#1F2933" points="1689.7625,1291.8,1679.1928,1285.4878,1683.5575,1291.051,1677.9944,1295.4157,1689.7625,1291.8" style="stroke:#1F2933;stroke-width:1.25;"/><text fill="#000000" font-family="Verdana" font-size="16.25" lengthAdjust="spacing" textLength="83.2813" x="974.3835" y="938.7711">read/write</text><text fill="#000000" font-family="Verdana" font-size="16.25" lengthAdjust="spacing" textLength="159.5483" x="936.25" y="957.6871">CircuitBreakerState</text><text fill="#000000" font-family="Verdana" font-size="16.25" lengthAdjust="spacing" textLength="99.8486" x="966.0999" y="976.6031">OrderQueue</text></g><!--link ReturnsModule to RetailDB--><g class="link" data-entity-1="ReturnsModule" data-entity-2="RetailDB" data-source-line="62" data-uid="lnk35" id="link_ReturnsModule_RetailDB"><path d="M1506.9375,745.075 C1486.3,755.3375 1461.7875,766.5125 1438.75,774.525 C1316.525,817.025 1235.6,738.5375 1155,839.7625 C1088.8125,922.9 1092.95,992.6 1155,1078.8625 C1276.475,1247.7375 1521.2563,1293.0321 1682.3938,1304.4571" fill="none" id="ReturnsModule-to-RetailDB" style="stroke:#1F2933;stroke-width:1.25;"/><polygon fill="#1F2933" points="1689.875,1304.9875,1679.0068,1299.2044,1683.6407,1304.5455,1678.2995,1309.1793,1689.875,1304.9875" style="stroke:#1F2933;stroke-width:1.25;"/><text fill="#000000" font-family="Verdana" font-size="16.25" lengthAdjust="spacing" textLength="162.1033" x="1156.25" y="957.5211">persist RMA entities</text></g><!--link ReturnsModule to NotificationSvc--><g class="link" data-entity-1="ReturnsModule" data-entity-2="NotificationSvc" data-source-line="63" data-uid="lnk36" id="link_ReturnsModule_NotificationSvc"><path d="M1544.8375,744.875 C1525.3875,789.4 1489.0505,872.5889 1469.538,917.2889" fill="none" id="ReturnsModule-to-NotificationSvc" style="stroke:#1F2933;stroke-width:1.25;"/><polygon fill="#1F2933" points="1466.5375,924.1625,1475.6207,915.8524,1469.0379,918.4345,1466.4558,911.8517,1466.5375,924.1625" style="stroke:#1F2933;stroke-width:1.25;"/><text fill="#000000" font-family="Verdana" font-size="16.25" lengthAdjust="spacing" textLength="187.2559" x="1515" y="824.8461">publish status changes</text></g><!--link Dashboard to MetricsEndpoint--><g class="link" data-entity-1="Dashboard" data-entity-2="MetricsEndpoint" data-source-line="64" data-uid="lnk37" id="link_Dashboard_MetricsEndpoint"><path d="M2011.7,690.0125 C1989.5375,661.5 1950.5375,618.5625 1905,600.425 C1827.2,569.425 474.7,567.9625 397.5,600.425 C354.2,618.625 322.9772,655.4066 303.0272,683.8941" fill="none" id="Dashboard-to-MetricsEndpoint" style="stroke:#1F2933;stroke-width:1.25;"/><polygon fill="#1F2933" points="298.725,690.0375,309.2739,683.6906,302.3102,684.918,301.0828,677.9543,298.725,690.0375" style="stroke:#1F2933;stroke-width:1.25;"/><text fill="#000000" font-family="Verdana" font-size="16.25" lengthAdjust="spacing" textLength="74.5056" x="1253.125" y="576.1336">poll JSON</text></g><!--link Dashboard to LowStockSvc--><g class="link" data-entity-1="Dashboard" data-entity-2="LowStockSvc" data-source-line="65" data-uid="lnk38" id="link_Dashboard_LowStockSvc"><path d="M1972.2375,745.025 C1951.0625,754.4 1926.9875,765 1905,774.525 C1836.8875,804.025 1811.8375,796.8875 1751.25,839.7625 C1717.85,863.4 1691.8652,893.7334 1673.2652,918.2959" fill="none" id="Dashboard-to-LowStockSvc" style="stroke:#1F2933;stroke-width:1.25;"/><polygon fill="#1F2933" points="1668.7375,924.275,1679.5151,918.3248,1672.5106,919.2924,1671.543,912.2878,1668.7375,924.275" style="stroke:#1F2933;stroke-width:1.25;"/><text fill="#000000" font-family="Verdana" font-size="16.25" lengthAdjust="spacing" textLength="108.8544" x="1807.5" y="824.8461">display alerts</text></g><!--link Flask to RetailDB--><g class="link" data-entity-1="Flask" data-entity-2="RetailDB" data-source-line="66" data-uid="lnk39" id="link_Flask_RetailDB"><path d="M1550.025,463.6125 C1723.45,490.175 2108.8,553.8625 2146.25,600.425 C2209.1,678.5625 2122.075,1044.2375 2093.75,1078.8625 C2061.675,1118.075 2028.4125,1090.2375 1987.5,1120.1125 C1931.3125,1161.15 1888.2086,1221.6501 1862.1586,1263.3876" fill="none" id="Flask-to-RetailDB" style="stroke:#1F2933;stroke-width:1.25;"/><polygon fill="#1F2933" points="1858.1875,1269.75,1868.3857,1262.8537,1861.4967,1264.448,1859.9024,1257.559,1858.1875,1269.75" style="stroke:#1F2933;stroke-width:1.25;"/><text fill="#000000" font-family="Verdana" font-size="16.25" lengthAdjust="spacing" textLength="145.7343" x="2161.25" y="824.8461">SQLAlchemy ORM</text></g><!--link HistorySvc to RetailDB--><g class="link" data-entity-1="HistorySvc" data-entity-2="RetailDB" data-source-line="67" data-uid="lnk40" id="link_HistorySvc_RetailDB"><path d="M1836.25,979.1125 C1836.25,1041.125 1836.25,1190.1625 1836.25,1262.3375" fill="none" id="HistorySvc-to-RetailDB" style="stroke:#1F2933;stroke-width:1.25;"/><polygon fill="#1F2933" points="1836.25,1269.8375,1841.25,1258.5875,1836.25,1263.5875,1831.25,1258.5875,1836.25,1269.8375" style="stroke:#1F2933;stroke-width:1.25;"/><text fill="#000000" font-family="Verdana" font-size="16.25" lengthAdjust="spacing" textLength="107.9657" x="1837.5" y="1105.1961">query history</text></g><!--link RetailDB to Volume--><g class="link" data-entity-1="RetailDB" data-entity-2="Volume" data-source-line="68" data-uid="lnk41" id="link_RetailDB_Volume"><path d="M1836.25,1347.3125 C1836.25,1377.45 1836.25,1411.9375 1836.25,1441.075" fill="none" id="RetailDB-to-Volume" style="stroke:#1F2933;stroke-width:1.25;"/><polygon fill="#1F2933" points="1836.25,1448.575,1841.25,1437.325,1836.25,1442.325,1831.25,1437.325,1836.25,1448.575" style="stroke:#1F2933;stroke-width:1.25;"/><text fill="#000000" font-family="Verdana" font-size="16.25" lengthAdjust="spacing" textLength="74.9817" x="1837.5" y="1406.5336">data files</text></g><!--link Flask to PaymentGateway--><g class="link" data-entity-1="Flask" data-entity-2="PaymentGateway" data-source-line="70" data-uid="lnk42" id="link_Flask_PaymentGateway"><path d="M1382.55,451.675 C1192.2375,454.25 733.675,468.975 606.25,550.425 C551.4,585.4875 523.9874,654.7658 512.6874,690.2658" fill="none" id="Flask-to-PaymentGateway" style="stroke:#1F2933;stroke-width:1.25;"/><polygon fill="#1F2933" points="510.4125,697.4125,518.5892,688.2091,512.3082,691.4569,509.0603,685.1759,510.4125,697.4125" style="stroke:#1F2933;stroke-width:1.25;"/><text fill="#000000" font-family="Verdana" font-size="16.25" lengthAdjust="spacing" textLength="129.9127" x="607.5" y="576.1336">Refund / charge</text></g><!--link Flask to PartnerAPIs--><g class="link" data-entity-1="Flask" data-entity-2="PartnerAPIs" data-source-line="71" data-uid="lnk43" id="link_Flask_PartnerAPIs"><path d="M1382.775,454.725 C1224.075,462.875 886.0625,487.2875 790,550.425 C735.4125,586.3 707.2422,655.1959 695.5172,690.4459" fill="none" id="Flask-to-PartnerAPIs" style="stroke:#1F2933;stroke-width:1.25;"/><polygon fill="#1F2933" points="693.15,697.5625,701.4452,688.4657,695.1226,691.632,691.9563,685.3094,693.15,697.5625" style="stroke:#1F2933;stroke-width:1.25;"/><text fill="#000000" font-family="Verdana" font-size="16.25" lengthAdjust="spacing" textLength="104.8871" x="791.25" y="576.1336">Catalog sync</text></g><!--reverse link Logs to Flask--><g class="link" data-entity-1="Logs" data-entity-2="Flask" data-source-line="72" data-uid="lnk44" id="link_Logs_Flask"><path d="M120.2751,690.4913 C132.7126,664.3788 155.5375,624.6 192.5,600.425 C280.0375,543.15 319.1375,566.5125 422.5,550.425 C777.275,495.2 1204.9875,466.15 1382.625,455.7375" fill="none" id="Logs-backto-Flask" style="stroke:#1F2933;stroke-width:1.25;"/><polygon fill="#1F2933" points="117.05,697.2625,126.4018,689.2559,119.7376,691.6199,117.3736,684.9557,117.05,697.2625" style="stroke:#1F2933;stroke-width:1.25;"/><text fill="#000000" font-family="Verdana" font-size="16.25" lengthAdjust="spacing" textLength="129.635" x="423.75" y="576.1336">structured JSON</text></g><!--reverse link MetricsEndpoint to QTM--><g class="link" data-entity-1="MetricsEndpoint" data-entity-2="QTM" data-source-line="73" data-uid="lnk45" id="link_MetricsEndpoint_QTM"><path d="M303.0441,683.9472 C323.0066,655.4847 354.25,618.7375 397.5,600.425 C473.0875,568.425 1057.4625,571.2625 1136.25,594.3125 C1205.175,614.475 1272.8625,667.6875 1306.6125,697.15" fill="none" id="MetricsEndpoint-backto-QTM" style="stroke:#1F2933;stroke-width:1.25;"/><polygon fill="#1F2933" points="298.7375,690.0875,309.2909,683.7481,302.3263,684.9706,301.1038,678.006,298.7375,690.0875" style="stroke:#1F2933;stroke-width:1.25;"/><text fill="#000000" font-family="Verdana" font-size="16.25" lengthAdjust="spacing" textLength="227.5317" x="907.5" y="576.1336">counters/histograms/events</text></g><!--link WebContainer to GMN46--><g class="link" data-entity-1="WebContainer" data-entity-2="GMN46" data-source-line="76" data-uid="lnk48" id="link_WebContainer_GMN46"><path d="M2164.0022,430.5983 C2164.611,429.4939 2165.246,428.3477 2165.9071,427.1613 C2167.2292,424.7885 2168.6556,422.2546 2170.1843,419.5715 C2173.2417,414.2054 2176.7088,408.2424 2180.5711,401.7771 C2196.0203,375.916 2217.7938,342.018 2244.975,306.1328 C2299.3375,234.3625 2375.3312,154.6438 2465.625,115.375 C2540.5125,82.8 2570.2125,95.2875 2649.375,115.375 C2856.0375,167.8125 3068.4125,304.8875 3182.125,386.3875" fill="none" id="WebContainer-GMN46" style="stroke:#1F2933;stroke-width:1.25;stroke-dasharray:8.75,8.75;"/></g><!--link DbContainer to GMN49--><g class="link" data-entity-1="DbContainer" data-entity-2="GMN49" data-source-line="85" data-uid="lnk51" id="link_DbContainer_GMN49"><path d="M2036.7264,1308.6125 C2037.0215,1308.6125 2037.3166,1308.6125 2037.6117,1308.6125 C2038.7922,1308.6125 2039.9727,1308.6125 2041.1531,1308.6125 C2045.875,1308.6125 2050.5969,1308.6125 2055.3188,1308.6125 C2064.7625,1308.6125 2074.2063,1308.6125 2083.65,1308.6125 C2102.5375,1308.6125 2121.425,1308.6125 2140.3125,1308.6125 C2178.0875,1308.6125 2215.8625,1308.6125 2253.6375,1308.6125" fill="none" id="DbContainer-GMN49" style="stroke:#1F2933;stroke-width:1.25;stroke-dasharray:8.75,8.75;"/></g><!--link CP4Services to GMN52--><g class="link" data-entity-1="CP4Services" data-entity-2="GMN52" data-source-line="92" data-uid="lnk54" id="link_CP4Services_GMN52"><path d="M1346.8597,859.1281 C1347.0137,858.6489 1347.1701,858.1706 1347.329,857.6933 C1347.9645,855.784 1348.6396,853.8902 1349.3563,852.0172 C1350.7898,848.271 1352.3901,844.6076 1354.1754,841.0678 C1361.3164,826.9086 1371.4156,814.7281 1385.625,807.15 C1458.05,768.5125 2044.575,787.9375 2124.375,807.15 C2197.3625,824.7125 2272.7,864.45 2327.3,897.8375" fill="none" id="CP4Services-GMN52" style="stroke:#1F2933;stroke-width:1.25;stroke-dasharray:8.75,8.75;"/></g><!--link ManageStore to GMN58--><g class="link" data-entity-1="ManageStore" data-entity-2="GMN58" data-source-line="108" data-uid="lnk60" id="link_ManageStore_GMN58"><path d="M2023.8125,422.25 C2022.6625,354.5 2030.6,181.0625 2136.875,115.375 C2197.725,77.775 3363.375,78.0125 3424.375,115.375 C3524.725,176.85 3568.3875,317.95 3585.4125,395.8375" fill="none" id="ManageStore-GMN58" style="stroke:#1F2933;stroke-width:1.25;stroke-dasharray:8.75,8.75;"/></g><!--SRC=[XLPjRzis4FwkNt7BWA55wxXnahvX6E3NPblJE76oVIcmKX9j4vP8bQJYUKF_-nwIaYmxTkSlYNZFFJmUdplU3tR9Sqv5neICp4h8WccMKwBoGaakxSnkCawQ9vR9HSPRa88bAxRWnm5f8UYiz-eGwqI1MVp3wUoWUG3gXLQbJ8SgKvf-79zFUfFHGQZIATSLxEpTczUZtjCOd_1DpiUNayi3m3RRcy7PfDzcIvbbCJDFwSPl9vVZTuUGRRxU-CtelCt7j5RhElH9xztvUSiebJqGzsHoFXpjezgRlBryVV7g8egaIZcT34jZLSur3R2JuVg4cA5wiLgheFqq5t87vrTgK8KQgMG5kYjbx0dz6n5-SyG1Inei_c8C9sCHUmrnl-2_vl5d-Un3AKMYjAGNDCcOMJtt-_t9uo5q0I62P-leVirrqubte7vHP29XLYW9lXm-fyK6T75Mya8BQKtWzEXZL7VSbbeQ-edk-1n9DdIjqZBZOCIH7qN23IWjpr4TbbUCbLD07cE-BLacx8RkMM950buceQwGrjlxwsDk3rBC1Kz3vcd4p39MJAU8fylSKZUjbq8i3U8OOTYNPbPfJbEbBSksPBatTemp1hu0z-WTncFqm-a5JJX3Gh17bR4WiUb5_LrNnzwDxZ5T2HV6fd92Z3TEqpGHcUMupaM8hqOz9j_Z-gZME4AowcTSsotZj8mxip8EJ3NcVwW-AOiR2JhRCjrTz-cXIBUQs85zdz49SZbZ6My5fbMkd6jBim6oH_KjslwtLrUfAwifgdAX-Ups8vrTLWevMb9rY_9bm4H6em4e4YSK638lVNVG5vHpgo7YHlu0ZmOxN4pZ_90wdKovDhWaTzG_L5RcE5yHeZ9_kHqzHx14kyVw5dshcypuRrowP5bBKo7sjh9nUJHbcznzVS1LhDd6arThrTA-snIXkbpqfx-Q2kuNtFSsW6ib1OG6tT6zKXd-7eXWPdMPEEcdKDF2LB9Qc2UHXlJHJBB2B9Lj5M0xiHLiBDD2eN-vOFOQDNKwluI6Hk_fwlv-EliiVV7EDUuONInPycIbIdlGSLixyExw9wEp36i7yNkQTawi45tPMZPH-udmNar7seRepug4IAFGC9zuj2gntYDa9rDhrvkILHJExC0xpHTm8H_LYdkThfLUpU7JGgFJ0iFmL6oWQT-9MzPsZthllcXUjJAyk2ZjoBbNcth90wKvIxjhBInqFHGwAOKTO0qFtymoj-ZRrct9Inxjnhf7L8GwyP539S8ARFZKu-ab56MS2RDqxwij3QuSKnTSjtbtRdjQScugo-YtsSsdFUHkzbDXyDHjYBdEQNRpNaUExjBFeBHyGpTtrr5BLdl0hoNN6webrXWSAZG0jo5Q0iq5katKscstX04BppDrtN7rWkz0c_9rbmYwJ2t8R6GIkLgadpjDnPXjlVf4x2S9q22O10CN6f3f-jWN66zCbpyY8EFwWuK-n69fISrt9XQKVTWfQHfkZA1njFSmTQYPUPnGmUuNwmca6LlGRklHmmDkOlV9Ok77YLoa85mp_pmZt6hAgBHDuK7NtdReQQPdGdPodkC-daSS2NMdsJ_JQET8rPDYsgTIoYANQ6RqA1WmNzAuAz0mJytNxCjB18cK-VRmafXqeqcABN4idfhJwkeDhJWll8ZTKM9krvpBPdZ4XXONQqwFHjagNlWFNUCBjzYSkafxc2CgbT9QsANJcxjUUjOxFNlkGQW2ycL0VcRmfbumkG9jLw6tdGTR7pLL8jngie0-FxADOowOTI-OEPxark1sPEWBuOUPZH8iOES7Y05PzGFQorey8PP1QN0xnjIlDPw3tzsRvcopX4kcXQB-wPcx4fhYRzwySHxZcZMvCLSc6_XMUZyM_-wWU63AhABNQ6KO2uPt3oDIw7dLir7dtBVtgjjGCw1vin-2oC1MoTfr16-vPt6CT0bNenWwU1FaVm00]--></g></svg>