<svg xmlns="http://www.w3.org/2000/svg" xmlns:xlink="http://www.w3.org/1999/xlink" contentStyleType="text/css" data-diagram-type="DESCRIPTION" height="766.25px" preserveAspectRatio="none" style="width:1747px;height:766px;background:#FFFFFF;" version="1.1" viewBox="0 0 1747 766" width="1747.5px" zoomAndPan="magnify"><defs/><g><!--cluster Core Platform--><g class="cluster" data-entity="Core Platform" data-source-line="11" data-uid="ent0002" id="cluster_Core Platform"><rect fill="#F4ECFE" height="323.75" rx="3.125" ry="3.125" style="stroke:#6C3FA7;stroke-width:1.25;" width="198.1625" x="652.875" y="435"/><text fill="#000000" font-family="Verdana" font-size="17.5" font-weight="bold" lengthAdjust="spacing" textLength="136.958" x="683.4772" y="453.7439">Core Platform</text></g><!--cluster Experience Layer--><g class="cluster" data-entity="Experience Layer" data-source-line="17" data-uid="ent0006" id="cluster_Experience Layer"><rect fill="#F4ECFE" height="121.25" rx="3.125" ry="3.125" style="stroke:#6C3FA7;stroke-width:1.25;" width="530.95" x="15" y="581.25"/><text fill="#000000" font-family="Verdana" font-size="17.5" font-weight="bold" lengthAdjust="spacing" textLength="169.7961" x="195.5769" y="599.9939">Experience Layer</text></g><!--cluster Domain Services--><g class="cluster" data-entity="Domain Services" data-source-line="22" data-uid="ent0009" id="cluster_Domain Services"><rect fill="#F4ECFE" height="222.5" rx="3.125" ry="3.125" style="stroke:#6C3FA7;stroke-width:1.25;" width="559.7875" x="328.05" y="182.5"/><text fill="#000000" font-family="Verdana" font-size="17.5" font-weight="bold" lengthAdjust="spacing" textLength="164.3103" x="525.7886" y="201.2439">Domain Services</text></g><!--cluster CP4 Feature Services--><g class="cluster" data-entity="CP4 Feature Services" data-source-line="28" data-uid="ent0013" id="cluster_CP4 Feature Services"><rect fill="#E8F5E9" height="323.75" rx="3.125" ry="3.125" style="stroke:#6C3FA7;stroke-width:1.25;" width="322.7" x="1077.8375" y="341.25"/><text fill="#000000" font-family="Verdana" font-size="17.5" font-weight="bold" lengthAdjust="spacing" textLength="210.1538" x="1134.1106" y="359.9939">CP4 Feature Services</text></g><!--cluster Reliability & Observability--><g class="cluster" data-entity="Reliability . Observability" data-source-line="34" data-uid="ent0017" id="cluster_Reliability . Observability"><rect fill="#F4ECFE" height="121.25" rx="3.125" ry="3.125" style="stroke:#6C3FA7;stroke-width:1.25;" width="631" x="1109.5625" y="15"/><text fill="#000000" font-family="Verdana" font-size="17.5" font-weight="bold" lengthAdjust="spacing" textLength="258.7231" x="1295.7009" y="33.7439">Reliability &amp; Observability</text></g><!--entity Main--><g class="entity" data-entity="Main" data-source-line="12" data-uid="ent0003" id="entity_Main"><rect fill="#FFFFFF" height="57.8711" rx="3.125" ry="3.125" style="stroke:#000000;stroke-width:1.25;" width="120.752" x="691.5875" y="579.8125"/><rect fill="#FFFFFF" height="12.5" style="stroke:#000000;stroke-width:1.25;" width="18.75" x="787.3395" y="586.0625"/><rect fill="#FFFFFF" height="2.5" style="stroke:#000000;stroke-width:1.25;" width="5" x="784.8395" y="588.5625"/><rect fill="#FFFFFF" height="2.5" style="stroke:#000000;stroke-width:1.25;" width="5" x="784.8395" y="593.5625"/><text fill="#000000" font-family="Verdana" font-size="17.5" lengthAdjust="spacing" textLength="70.752" x="710.3375" y="621.0564">main.py</text></g><!--entity Models--><g class="entity" data-entity="Models" data-source-line="13" data-uid="ent0004" id="entity_Models"><rect fill="#FFFFFF" height="57.8711" rx="3.125" ry="3.125" style="stroke:#000000;stroke-width:1.25;" width="140.636" x="681.6375" y="681.0625"/><rect fill="#FFFFFF" height="12.5" style="stroke:#000000;stroke-width:1.25;" width="18.75" x="797.2735" y="687.3125"/><rect fill="#FFFFFF" height="2.5" style="stroke:#000000;stroke-width:1.25;" width="5" x="794.7735" y="689.8125"/><rect fill="#FFFFFF" height="2.5" style="stroke:#000000;stroke-width:1.25;" width="5" x="794.7735" y="694.8125"/><text fill="#000000" font-family="Verdana" font-size="17.5" lengthAdjust="spacing" textLength="90.636" x="700.3875" y="722.3064">models.py</text></g><!--entity Database--><g class="entity" data-entity="Database" data-source-line="14" data-uid="ent0005" id="entity_Database"><rect fill="#FFFFFF" height="57.8711" rx="3.125" ry="3.125" style="stroke:#000000;stroke-width:1.25;" width="158.1616" x="672.875" y="478.5625"/><rect fill="#FFFFFF" height="12.5" style="stroke:#000000;stroke-width:1.25;" width="18.75" x="806.0366" y="484.8125"/><rect fill="#FFFFFF" height="2.5" style="stroke:#000000;stroke-width:1.25;" width="5" x="803.5366" y="487.3125"/><rect fill="#FFFFFF" height="2.5" style="stroke:#000000;stroke-width:1.25;" width="5" x="803.5366" y="492.3125"/><text fill="#000000" font-family="Verdana" font-size="17.5" lengthAdjust="spacing" textLength="108.1616" x="691.625" y="519.8064">database.py</text></g><!--entity ReturnsBP--><g class="entity" data-entity="ReturnsBP" data-source-line="18" data-uid="ent0007" id="entity_ReturnsBP"><rect fill="#FFFFFF" height="57.8711" rx="3.125" ry="3.125" style="stroke:#000000;stroke-width:1.25;" width="234.3054" x="35" y="624.8125"/><rect fill="#FFFFFF" height="12.5" style="stroke:#000000;stroke-width:1.25;" width="18.75" x="244.3054" y="631.0625"/><rect fill="#FFFFFF" height="2.5" style="stroke:#000000;stroke-width:1.25;" width="5" x="241.8054" y="633.5625"/><rect fill="#FFFFFF" height="2.5" style="stroke:#000000;stroke-width:1.25;" width="5" x="241.8054" y="638.5625"/><text fill="#000000" font-family="Verdana" font-size="17.5" lengthAdjust="spacing" textLength="184.3054" x="53.75" y="666.0564">blueprints/returns.py</text></g><!--entity Templates--><g class="entity" data-entity="Templates" data-source-line="19" data-uid="ent0008" id="entity_Templates"><rect fill="#FFFFFF" height="57.8711" rx="3.125" ry="3.125" style="stroke:#000000;stroke-width:1.25;" width="144.0112" x="381.9375" y="624.8125"/><rect fill="#FFFFFF" height="12.5" style="stroke:#000000;stroke-width:1.25;" width="18.75" x="500.9487" y="631.0625"/><rect fill="#FFFFFF" height="2.5" style="stroke:#000000;stroke-width:1.25;" width="5" x="498.4487" y="633.5625"/><rect fill="#FFFFFF" height="2.5" style="stroke:#000000;stroke-width:1.25;" width="5" x="498.4487" y="638.5625"/><text fill="#000000" font-family="Verdana" font-size="17.5" lengthAdjust="spacing" textLength="94.0112" x="400.6875" y="666.0564">templates/</text></g><!--entity ReturnsSvc--><g class="entity" data-entity="ReturnsSvc" data-source-line="23" data-uid="ent0010" id="entity_ReturnsSvc"><rect fill="#FFFFFF" height="57.8711" rx="3.125" ry="3.125" style="stroke:#000000;stroke-width:1.25;" width="211.781" x="348.05" y="327.3125"/><rect fill="#FFFFFF" height="12.5" style="stroke:#000000;stroke-width:1.25;" width="18.75" x="534.831" y="333.5625"/><rect fill="#FFFFFF" height="2.5" style="stroke:#000000;stroke-width:1.25;" width="5" x="532.331" y="336.0625"/><rect fill="#FFFFFF" height="2.5" style="stroke:#000000;stroke-width:1.25;" width="5" x="532.331" y="341.0625"/><text fill="#000000" font-family="Verdana" font-size="17.5" lengthAdjust="spacing" textLength="161.781" x="366.8" y="368.5564">returns_service.py</text></g><!--entity RefundSvc--><g class="entity" data-entity="RefundSvc" data-source-line="24" data-uid="ent0011" id="entity_RefundSvc"><rect fill="#FFFFFF" height="57.8711" rx="3.125" ry="3.125" style="stroke:#000000;stroke-width:1.25;" width="205.8765" x="649.025" y="327.3125"/><rect fill="#FFFFFF" height="12.5" style="stroke:#000000;stroke-width:1.25;" width="18.75" x="829.9015" y="333.5625"/><rect fill="#FFFFFF" height="2.5" style="stroke:#000000;stroke-width:1.25;" width="5" x="827.4015" y="336.0625"/><rect fill="#FFFFFF" height="2.5" style="stroke:#000000;stroke-width:1.25;" width="5" x="827.4015" y="341.0625"/><text fill="#000000" font-family="Verdana" font-size="17.5" lengthAdjust="spacing" textLength="155.8765" x="667.775" y="368.5564">refund_service.py</text></g><!--entity InventorySvc--><g class="entity" data-entity="InventorySvc" data-source-line="25" data-uid="ent0012" id="entity_InventorySvc"><rect fill="#FFFFFF" height="57.8711" rx="3.125" ry="3.125" style="stroke:#000000;stroke-width:1.25;" width="231.7505" x="636.0875" y="226.0625"/><rect fill="#FFFFFF" height="12.5" style="stroke:#000000;stroke-width:1.25;" width="18.75" x="842.838" y="232.3125"/><rect fill="#FFFFFF" height="2.5" style="stroke:#000000;stroke-width:1.25;" width="5" x="840.338" y="234.8125"/><rect fill="#FFFFFF" height="2.5" style="stroke:#000000;stroke-width:1.25;" width="5" x="840.338" y="239.8125"/><text fill="#000000" font-family="Verdana" font-size="17.5" lengthAdjust="spacing" textLength="181.7505" x="654.8375" y="267.3064">inventory_service.py</text></g><!--entity HistorySvc--><g class="entity" data-entity="HistorySvc" data-source-line="29" data-uid="ent0014" id="entity_HistorySvc"><rect fill="#FFFFFF" height="57.8711" rx="3.125" ry="3.125" style="stroke:#000000;stroke-width:1.25;" width="208.6536" x="1134.8625" y="587.3125"/><rect fill="#FFFFFF" height="12.5" style="stroke:#000000;stroke-width:1.25;" width="18.75" x="1318.5161" y="593.5625"/><rect fill="#FFFFFF" height="2.5" style="stroke:#000000;stroke-width:1.25;" width="5" x="1316.0161" y="596.0625"/><rect fill="#FFFFFF" height="2.5" style="stroke:#000000;stroke-width:1.25;" width="5" x="1316.0161" y="601.0625"/><text fill="#000000" font-family="Verdana" font-size="17.5" lengthAdjust="spacing" textLength="158.6536" x="1153.6125" y="628.5564">history_service.py</text></g><!--entity LowStockSvc--><g class="entity" data-entity="LowStockSvc" data-source-line="30" data-uid="ent0015" id="entity_LowStockSvc"><rect fill="#FFFFFF" height="57.8711" rx="3.125" ry="3.125" style="stroke:#000000;stroke-width:1.25;" width="282.6953" x="1097.8375" y="486.0625"/><rect fill="#FFFFFF" height="12.5" style="stroke:#000000;stroke-width:1.25;" width="18.75" x="1355.5328" y="492.3125"/><rect fill="#FFFFFF" height="2.5" style="stroke:#000000;stroke-width:1.25;" width="5" x="1353.0328" y="494.8125"/><rect fill="#FFFFFF" height="2.5" style="stroke:#000000;stroke-width:1.25;" width="5" x="1353.0328" y="499.8125"/><text fill="#000000" font-family="Verdana" font-size="17.5" lengthAdjust="spacing" textLength="232.6953" x="1116.5875" y="527.3064">low_stock_alert_service.py</text></g><!--entity NotificationSvc--><g class="entity" data-entity="NotificationSvc" data-source-line="31" data-uid="ent0016" id="entity_NotificationSvc"><rect fill="#FFFFFF" height="57.8711" rx="3.125" ry="3.125" style="stroke:#000000;stroke-width:1.25;" width="246.875" x="1115.75" y="384.8125"/><rect fill="#FFFFFF" height="12.5" style="stroke:#000000;stroke-width:1.25;" width="18.75" x="1337.625" y="391.0625"/><rect fill="#FFFFFF" height="2.5" style="stroke:#000000;stroke-width:1.25;" width="5" x="1335.125" y="393.5625"/><rect fill="#FFFFFF" height="2.5" style="stroke:#000000;stroke-width:1.25;" width="5" x="1335.125" y="398.5625"/><text fill="#000000" font-family="Verdana" font-size="17.5" lengthAdjust="spacing" textLength="196.875" x="1134.5" y="426.0564">notification_service.py</text></g><!--entity TacticsManager--><g class="entity" data-entity="TacticsManager" data-source-line="35" data-uid="ent0018" id="entity_TacticsManager"><rect fill="#FFFFFF" height="57.8711" rx="3.125" ry="3.125" style="stroke:#000000;stroke-width:1.25;" width="219.2493" x="1129.5625" y="58.5625"/><rect fill="#FFFFFF" height="12.5" style="stroke:#000000;stroke-width:1.25;" width="18.75" x="1323.8118" y="64.8125"/><rect fill="#FFFFFF" height="2.5" style="stroke:#000000;stroke-width:1.25;" width="5" x="1321.3118" y="67.3125"/><rect fill="#FFFFFF" height="2.5" style="stroke:#000000;stroke-width:1.25;" width="5" x="1321.3118" y="72.3125"/><text fill="#000000" font-family="Verdana" font-size="17.5" lengthAdjust="spacing" textLength="169.2493" x="1148.3125" y="99.8064">tactics/manager.py</text></g><!--entity Metrics--><g class="entity" data-entity="Metrics" data-source-line="36" data-uid="ent0019" id="entity_Metrics"><rect fill="#FFFFFF" height="57.8711" rx="3.125" ry="3.125" style="stroke:#000000;stroke-width:1.25;" width="261.2817" x="1459.2875" y="58.5625"/><rect fill="#FFFFFF" height="12.5" style="stroke:#000000;stroke-width:1.25;" width="18.75" x="1695.5692" y="64.8125"/><rect fill="#FFFFFF" height="2.5" style="stroke:#000000;stroke-width:1.25;" width="5" x="1693.0692" y="67.3125"/><rect fill="#FFFFFF" height="2.5" style="stroke:#000000;stroke-width:1.25;" width="5" x="1693.0692" y="72.3125"/><text fill="#000000" font-family="Verdana" font-size="17.5" lengthAdjust="spacing" textLength="211.2817" x="1478.0375" y="99.8064">observability/metrics.py</text></g><g class="entity" data-entity="GMN36" data-source-line="59" data-uid="ent0037" id="entity_GMN36"><path d="M1461.25,603.4125 L1461.25,631.025 L1343.975,625.5375 L1461.25,641.025 L1461.25,691.5766 A0,0 0 0 0 1461.25,691.5766 L1718.5864,691.5766 A0,0 0 0 0 1718.5864,691.5766 L1718.5864,615.9125 L1706.0864,603.4125 L1461.25,603.4125 A0,0 0 0 0 1461.25,603.4125" fill="#FFF3CD" style="stroke:#856404;stroke-width:1.25;"/><path d="M1706.0864,603.4125 L1706.0864,615.9125 L1718.5864,615.9125 L1706.0864,603.4125" fill="#FFF3CD" style="stroke:#856404;stroke-width:1.25;"/><text fill="#000000" font-family="Verdana" font-size="16.25" lengthAdjust="spacing" textLength="130.3094" x="1468.75" y="624.7461">CP4 Feature 2.1</text><text fill="#000000" font-family="Verdana" font-size="16.25" lengthAdjust="spacing" textLength="181.1621" x="1468.75" y="643.6621">Order History Filtering</text><text fill="#000000" font-family="Verdana" font-size="16.25" lengthAdjust="spacing" textLength="231.0864" x="1468.75" y="662.5781">- Status/date/keyword filters</text><text fill="#000000" font-family="Verdana" font-size="16.25" lengthAdjust="spacing" textLength="129.4446" x="1468.75" y="681.4942">- Layers Pattern</text></g><g class="entity" data-entity="GMN39" data-source-line="66" data-uid="ent0040" id="entity_GMN39"><path d="M1478.3,470.9125 L1478.3,510 L1381.075,515 L1478.3,520 L1478.3,559.0766 A0,0 0 0 0 1478.3,559.0766 L1701.5336,559.0766 A0,0 0 0 0 1701.5336,559.0766 L1701.5336,483.4125 L1689.0336,470.9125 L1478.3,470.9125 A0,0 0 0 0 1478.3,470.9125" fill="#FFF3CD" style="stroke:#856404;stroke-width:1.25;"/><path d="M1689.0336,470.9125 L1689.0336,483.4125 L1701.5336,483.4125 L1689.0336,470.9125" fill="#FFF3CD" style="stroke:#856404;stroke-width:1.25;"/><text fill="#000000" font-family="Verdana" font-size="16.25" lengthAdjust="spacing" textLength="130.3094" x="1485.8" y="492.2461">CP4 Feature 2.2</text><text fill="#000000" font-family="Verdana" font-size="16.25" lengthAdjust="spacing" textLength="134.7369" x="1485.8" y="511.1621">Low Stock Alerts</text><text fill="#000000" font-family="Verdana" font-size="16.25" lengthAdjust="spacing" textLength="168.0701" x="1485.8" y="530.0781">- Pub-Sub subscriber</text><text fill="#000000" font-family="Verdana" font-size="16.25" lengthAdjust="spacing" textLength="196.9836" x="1485.8" y="548.9942">- Configurable threshold</text></g><g class="entity" data-entity="GMN42" data-source-line="73" data-uid="ent0043" id="entity_GMN42"><path d="M1503.55,338.4125 L1503.55,385.1875 L1363.2125,402.7375 L1503.55,395.1875 L1503.55,426.5766 A0,0 0 0 0 1503.55,426.5766 L1676.3039,426.5766 A0,0 0 0 0 1676.3039,426.5766 L1676.3039,350.9125 L1663.8039,338.4125 L1503.55,338.4125 A0,0 0 0 0 1503.55,338.4125" fill="#FFF3CD" style="stroke:#856404;stroke-width:1.25;"/><path d="M1663.8039,338.4125 L1663.8039,350.9125 L1676.3039,350.9125 L1663.8039,338.4125" fill="#FFF3CD" style="stroke:#856404;stroke-width:1.25;"/><text fill="#000000" font-family="Verdana" font-size="16.25" lengthAdjust="spacing" textLength="130.3094" x="1511.05" y="359.7461">CP4 Feature 2.3</text><text fill="#000000" font-family="Verdana" font-size="16.25" lengthAdjust="spacing" textLength="143.2983" x="1511.05" y="378.6621">RMA Notifications</text><text fill="#000000" font-family="Verdana" font-size="16.25" lengthAdjust="spacing" textLength="146.5039" x="1511.05" y="397.5781">- In-memory store</text><text fill="#000000" font-family="Verdana" font-size="16.25" lengthAdjust="spacing" textLength="125.7788" x="1511.05" y="416.4942">- Navbar badge</text></g><!--link Main to ReturnsBP--><g class="link" data-entity-1="Main" data-entity-2="ReturnsBP" data-source-line="39" data-uid="lnk20" id="link_Main_ReturnsBP"><path d="M691.15,601.725 C607.3375,593.2375 450.0625,582.425 318.05,602.5 C289.05,606.9125 265.2532,613.1177 238.1282,621.9927" fill="none" id="Main-to-ReturnsBP" style="stroke:#000000;stroke-width:1.25;"/><polygon fill="#000000" points="231,624.325,243.2471,625.5787,236.9401,622.3815,240.1374,616.0745,231,624.325" style="stroke:#000000;stroke-width:1.25;"/></g><!--link ReturnsBP to ReturnsSvc--><g class="link" data-entity-1="ReturnsBP" data-entity-2="ReturnsSvc" data-source-line="40" data-uid="lnk21" id="link_ReturnsBP_ReturnsSvc"><path d="M182.65,624.6875 C239.8625,567.8125 360.7055,447.687 418.018,390.7245" fill="none" id="ReturnsBP-to-ReturnsSvc" style="stroke:#000000;stroke-width:1.25;"/><polygon fill="#000000" points="423.3375,385.4375,411.8335,389.8217,418.9046,389.8434,418.8829,396.9144,423.3375,385.4375" style="stroke:#000000;stroke-width:1.25;"/></g><!--link ReturnsBP to Templates--><g class="link" data-entity-1="ReturnsBP" data-entity-2="Templates" data-source-line="41" data-uid="lnk22" id="link_ReturnsBP_Templates"><path d="M269.55,653.75 C307.3375,653.75 340.6375,653.75 374.1125,653.75" fill="none" id="ReturnsBP-to-Templates" style="stroke:#000000;stroke-width:1.25;"/><polygon fill="#000000" points="381.6125,653.75,370.3625,648.75,375.3625,653.75,370.3625,658.75,381.6125,653.75" style="stroke:#000000;stroke-width:1.25;"/></g><!--link ReturnsSvc to RefundSvc--><g class="link" data-entity-1="ReturnsSvc" data-entity-2="RefundSvc" data-source-line="42" data-uid="lnk23" id="link_ReturnsSvc_RefundSvc"><path d="M560.2125,356.25 C588.9125,356.25 612.475,356.25 641.0125,356.25" fill="none" id="ReturnsSvc-to-RefundSvc" style="stroke:#000000;stroke-width:1.25;"/><polygon fill="#000000" points="648.5125,356.25,637.2625,351.25,642.2625,356.25,637.2625,361.25,648.5125,356.25" style="stroke:#000000;stroke-width:1.25;"/></g><!--link ReturnsSvc to InventorySvc--><g class="link" data-entity-1="ReturnsSvc" data-entity-2="InventorySvc" data-source-line="43" data-uid="lnk24" id="link_ReturnsSvc_InventorySvc"><path d="M541.4625,326.6875 C580.3125,313.3875 618.9545,300.1424 657.7545,286.8549" fill="none" id="ReturnsSvc-to-InventorySvc" style="stroke:#000000;stroke-width:1.25;"/><polygon fill="#000000" points="664.85,284.425,652.5869,283.3396,658.9371,286.4499,655.8268,292.8002,664.85,284.425" style="stroke:#000000;stroke-width:1.25;"/></g><!--link ReturnsSvc to Models--><g class="link" data-entity-1="ReturnsSvc" data-entity-2="Models" data-source-line="44" data-uid="lnk25" id="link_ReturnsSvc_Models"><path d="M465.475,385.375 C487.75,444.6625 545.8375,580.45 636.0875,660 C649.1125,671.4875 658.3662,677.5848 674.3162,684.7973" fill="none" id="ReturnsSvc-to-Models" style="stroke:#000000;stroke-width:1.25;"/><polygon fill="#000000" points="681.15,687.8875,672.9595,678.6963,675.4552,685.3123,668.8392,687.8081,681.15,687.8875" style="stroke:#000000;stroke-width:1.25;"/></g><!--link InventorySvc to Models--><g class="link" data-entity-1="InventorySvc" data-entity-2="Models" data-source-line="45" data-uid="lnk26" id="link_InventorySvc_Models"><path d="M644.15,284.525 C625.45,294.7625 608.6125,308.4875 597.9625,326.875 C563.3,386.725 563.3,578.275 597.9625,638.125 C615.4125,668.25 642.3518,683.5659 674.0268,693.8159" fill="none" id="InventorySvc-to-Models" style="stroke:#000000;stroke-width:1.25;"/><polygon fill="#000000" points="681.1625,696.125,671.9984,687.9042,675.2161,694.2007,668.9196,697.4185,681.1625,696.125" style="stroke:#000000;stroke-width:1.25;"/></g><!--link Main to HistorySvc--><g class="link" data-entity-1="Main" data-entity-2="HistorySvc" data-source-line="47" data-uid="lnk27" id="link_Main_HistorySvc"><path d="M812.65,609.675 C892.6625,610.9125 1028.7634,613.0083 1126.7634,614.5333" fill="none" id="Main-to-HistorySvc" style="stroke:#000000;stroke-width:1.25;"/><polygon fill="#000000" points="1134.2625,614.65,1123.0917,609.4756,1128.0133,614.5528,1122.9361,619.4744,1134.2625,614.65" style="stroke:#000000;stroke-width:1.25;"/><text fill="#000000" font-family="Verdana" font-size="16.25" lengthAdjust="spacing" textLength="110.8459" x="927.8375" y="605.0836">/order-history</text></g><!--link Main to LowStockSvc--><g class="link" data-entity-1="Main" data-entity-2="LowStockSvc" data-source-line="48" data-uid="lnk28" id="link_Main_LowStockSvc"><path d="M812.9375,589.3 C841.4375,580.55 876.15,570.6625 907.8375,563.75 C969.525,550.2875 1031.0934,540.461 1089.9934,532.4485" fill="none" id="Main-to-LowStockSvc" style="stroke:#000000;stroke-width:1.25;"/><polygon fill="#000000" points="1097.425,531.4375,1085.6037,527.9996,1091.232,532.28,1086.9516,537.9083,1097.425,531.4375" style="stroke:#000000;stroke-width:1.25;"/><text fill="#000000" font-family="Verdana" font-size="16.25" lengthAdjust="spacing" textLength="148.1146" x="909.0875" y="532.5836">/admin/dashboard</text></g><!--link Main to NotificationSvc--><g class="link" data-entity-1="Main" data-entity-2="NotificationSvc" data-source-line="49" data-uid="lnk29" id="link_Main_NotificationSvc"><path d="M812.9,603.4125 C843.2,597.4125 877.7625,584.875 897.8375,558.75 C916.5,534.4625 885.6375,442.3625 907.8375,421.25 C967.75,364.2625 1057.6036,367.6022 1131.0536,382.7022" fill="none" id="Main-to-NotificationSvc" style="stroke:#000000;stroke-width:1.25;"/><polygon fill="#000000" points="1138.4,384.2125,1128.3873,377.0495,1132.278,382.9539,1126.3736,386.8447,1138.4,384.2125" style="stroke:#000000;stroke-width:1.25;"/><text fill="#000000" font-family="Verdana" font-size="16.25" lengthAdjust="spacing" textLength="135.5859" x="915.3375" y="368.8336">/api/notifications</text></g><!--link HistorySvc to Models--><g class="link" data-entity-1="HistorySvc" data-entity-2="Models" data-source-line="50" data-uid="lnk30" id="link_HistorySvc_Models"><path d="M1134.275,636.3 C1040.2375,654.4875 911.5637,679.3765 830.0262,695.139" fill="none" id="HistorySvc-to-Models" style="stroke:#000000;stroke-width:1.25;"/><polygon fill="#000000" points="822.6625,696.5625,834.657,699.3363,828.7989,695.3762,832.759,689.5181,822.6625,696.5625" style="stroke:#000000;stroke-width:1.25;"/></g><!--link LowStockSvc to Models--><g class="link" data-entity-1="LowStockSvc" data-entity-2="Models" data-source-line="51" data-uid="lnk31" id="link_LowStockSvc_Models"><path d="M1136.6625,544.4625 C1113.9875,551.1375 1090.075,558.2625 1067.8375,565 C996.5375,586.6125 958.25,560.15 907.8375,615 C893.975,630.0875 911.475,644.7125 897.8375,660 C878.65,681.5125 857.0106,691.895 830.0731,698.87" fill="none" id="LowStockSvc-to-Models" style="stroke:#000000;stroke-width:1.25;"/><polygon fill="#000000" points="822.8125,700.75,834.9567,702.7704,828.863,699.1833,832.45,693.0896,822.8125,700.75" style="stroke:#000000;stroke-width:1.25;"/></g><!--link NotificationSvc to ReturnsSvc--><g class="link" data-entity-1="NotificationSvc" data-entity-2="ReturnsSvc" data-source-line="52" data-uid="lnk32" id="link_NotificationSvc_ReturnsSvc"><path d="M1204.8,384.325 C1147.2625,335.4125 1023,239.275 897.8375,203.75 C785.925,171.9875 745.3625,163.8375 636.0875,203.75 C568.95,228.275 514.3481,284.1795 483.1606,321.1545" fill="none" id="NotificationSvc-to-ReturnsSvc" style="stroke:#000000;stroke-width:1.25;stroke-dasharray:8.75,8.75;"/><polygon fill="#000000" points="478.325,326.8875,489.4004,321.5118,482.3547,322.11,481.7564,315.0643,478.325,326.8875" style="stroke:#000000;stroke-width:1.25;"/><text fill="#000000" font-family="Verdana" font-size="16.25" lengthAdjust="spacing" textLength="67.2058" x="718.8375" y="172.5836">Pub-Sub</text></g><!--link InventorySvc to LowStockSvc--><g class="link" data-entity-1="InventorySvc" data-entity-2="LowStockSvc" data-source-line="53" data-uid="lnk33" id="link_InventorySvc_LowStockSvc"><path d="M868.4625,279.925 C879.75,286.45 889.925,294.6625 897.8375,305 C917.7875,331.1 886.0375,427.925 907.8375,452.5 C933.2375,481.1375 1011.9068,496.024 1089.8068,504.524" fill="none" id="InventorySvc-to-LowStockSvc" style="stroke:#000000;stroke-width:1.25;stroke-dasharray:8.75,8.75;"/><polygon fill="#000000" points="1097.2625,505.3375,1086.6212,499.1467,1091.0494,504.6596,1085.5365,509.0877,1097.2625,505.3375" style="stroke:#000000;stroke-width:1.25;"/><text fill="#000000" font-family="Verdana" font-size="16.25" lengthAdjust="spacing" textLength="67.2058" x="949.7125" y="447.5836">Pub-Sub</text></g><!--link Main to TacticsManager--><g class="link" data-entity-1="Main" data-entity-2="TacticsManager" data-source-line="55" data-uid="lnk34" id="link_Main_TacticsManager"><path d="M812.8125,603.6875 C843.2875,597.7875 878.025,585.2375 897.8375,558.75 C912.2375,539.4875 896.7375,363.8375 907.8375,342.5 C964.9,232.8 1085.9659,159.3272 1164.7534,120.3272" fill="none" id="Main-to-TacticsManager" style="stroke:#000000;stroke-width:1.25;"/><polygon fill="#000000" points="1171.475,117,1159.1745,117.5097,1165.8737,119.7727,1163.6108,126.4719,1171.475,117" style="stroke:#000000;stroke-width:1.25;"/></g><!--link TacticsManager to Metrics--><g class="link" data-entity-1="TacticsManager" data-entity-2="Metrics" data-source-line="56" data-uid="lnk35" id="link_TacticsManager_Metrics"><path d="M1349.1875,87.5 C1383.9125,87.5 1415.1875,87.5 1451.2625,87.5" fill="none" id="TacticsManager-to-Metrics" style="stroke:#000000;stroke-width:1.25;"/><polygon fill="#000000" points="1458.7625,87.5,1447.5125,82.5,1452.5125,87.5,1447.5125,92.5,1458.7625,87.5" style="stroke:#000000;stroke-width:1.25;"/></g><!--SRC=[TPLBRzim3CVl_XHS2-pck8-qwtOOqBenLg2FeEbj60hPfXqXicH8ShfWs7UVvAUiThaa97_cdoOfvPFUOeLGCq9ve7QKrqII2cgIxKY96trW218pJNZ9q07ociBfsSdxHsxCLob5m_DOC27XE5ckucJr0IXaZhA7BkFpvFgB0t6XFqYL9EVnhK-vUQukBfSdoo1WM6ZG0YGjjnfoQb-12Xu4lJWSnK8Yh1dHXP3L4Vm9m7n-LgODY_hm2uY21zkIpYjoP6hqjrONoOacAL4un6vxE_ZhIAr-roWfyWpXdXnGZcefQx2Mb6iLITIDvAF6SsVUh3jGOsKcf555RVHbC6Sojy9M3nkKUvgX6bNwrA-g2tWIctqsO8Nfz7lAUaU8yZroBUJ1v-w6W4NTgkBr4X8aHWkTqevNLyd5wkjGufQgZvB-wDoZEXDlhyQJxLu9Gwbz_5wyRMnqvCrwq89cn8xUXn-Tc5_pCp9AKigeFi1dU4hjexqzTbKJir6PYYh2pJDoIFlIkHywRuSADq5KePQ66BUfCws-NJW8m-_EzCTVhj-MEmzC2p4X_HF3-Bp0R5vUh5zm5t7zKvtJVE0RHEqv3FjHJf0p5KkHlA8yoedQfeB8VEAyWRHiJIDtXYfm59sAN0d7xMTSBDmM6e5rauQR9fs_gQNcDG_OLAitvRdPbT2FDR1NL7yDYMA-qUxHE5kS6i-JRU40GKAPDXS7BqqaX8qsf3ATqnZjyF1csWr5IwWstbuj2jP46nSFaEVjzUXNC3yaynBEZCV4eGNWsfwnBdVV0L1DgZ99qtQpGuW5BsZPI9AQVmczbQYsWkN_bVQFd2z_RZpF3zSphjE_us65bUs9xGoslaUoJuc4bEGbZfB_0000]--></g></svg>